G04 #@! TF.GenerationSoftware,KiCad,Pcbnew,(5.1.4)-1*
G04 #@! TF.CreationDate,2019-11-27T10:22:52+01:00*
G04 #@! TF.ProjectId,Breakout_v6,42726561-6b6f-4757-945f-76362e6b6963,rev?*
G04 #@! TF.SameCoordinates,Original*
G04 #@! TF.FileFunction,Copper,L1,Top*
G04 #@! TF.FilePolarity,Positive*
%FSLAX46Y46*%
G04 Gerber Fmt 4.6, Leading zero omitted, Abs format (unit mm)*
G04 Created by KiCad (PCBNEW (5.1.4)-1) date 2019-11-27 10:22:52*
%MOMM*%
%LPD*%
G04 APERTURE LIST*
%ADD10C,0.100000*%
%ADD11O,1.700000X1.700000*%
%ADD12R,1.700000X1.700000*%
%ADD13C,0.500000*%
%ADD14R,1.500000X0.700000*%
%ADD15R,0.700000X1.500000*%
%ADD16R,0.650000X1.060000*%
%ADD17C,0.875000*%
%ADD18C,1.250000*%
%ADD19C,1.200000*%
%ADD20C,0.300000*%
G04 APERTURE END LIST*
D10*
G36*
X142071600Y-79625000D02*
G01*
X141071600Y-79625000D01*
X141071600Y-79125000D01*
X142071600Y-79125000D01*
X142071600Y-79625000D01*
G37*
G36*
X142079600Y-78507400D02*
G01*
X141079600Y-78507400D01*
X141079600Y-78007400D01*
X142079600Y-78007400D01*
X142079600Y-78507400D01*
G37*
D11*
X143510000Y-89966800D03*
X143510000Y-87426800D03*
X146050000Y-89966800D03*
X146050000Y-87426800D03*
X148590000Y-89966800D03*
D12*
X148590000Y-87426800D03*
D13*
X141071600Y-79375000D03*
X142071600Y-79375000D03*
X141079600Y-78257400D03*
X142079600Y-78257400D03*
D14*
X150170000Y-69905000D03*
X150170000Y-71055000D03*
X150170000Y-72305000D03*
X150170000Y-73505000D03*
X150170000Y-74705000D03*
X141470000Y-69905000D03*
X141470000Y-71105000D03*
X141470000Y-72305000D03*
X141470000Y-73505000D03*
X141470000Y-74705000D03*
D15*
X148820000Y-76405000D03*
X147620000Y-76405000D03*
X146420000Y-76405000D03*
X145220000Y-76405000D03*
X144020000Y-76405000D03*
X142820000Y-76405000D03*
D16*
X143652200Y-82389800D03*
X145552200Y-82389800D03*
X145552200Y-84589800D03*
X144602200Y-84589800D03*
X143652200Y-84589800D03*
D10*
G36*
X145248791Y-80272653D02*
G01*
X145270026Y-80275803D01*
X145290850Y-80281019D01*
X145311062Y-80288251D01*
X145330468Y-80297430D01*
X145348881Y-80308466D01*
X145366124Y-80321254D01*
X145382030Y-80335670D01*
X145396446Y-80351576D01*
X145409234Y-80368819D01*
X145420270Y-80387232D01*
X145429449Y-80406638D01*
X145436681Y-80426850D01*
X145441897Y-80447674D01*
X145445047Y-80468909D01*
X145446100Y-80490350D01*
X145446100Y-81002850D01*
X145445047Y-81024291D01*
X145441897Y-81045526D01*
X145436681Y-81066350D01*
X145429449Y-81086562D01*
X145420270Y-81105968D01*
X145409234Y-81124381D01*
X145396446Y-81141624D01*
X145382030Y-81157530D01*
X145366124Y-81171946D01*
X145348881Y-81184734D01*
X145330468Y-81195770D01*
X145311062Y-81204949D01*
X145290850Y-81212181D01*
X145270026Y-81217397D01*
X145248791Y-81220547D01*
X145227350Y-81221600D01*
X144789850Y-81221600D01*
X144768409Y-81220547D01*
X144747174Y-81217397D01*
X144726350Y-81212181D01*
X144706138Y-81204949D01*
X144686732Y-81195770D01*
X144668319Y-81184734D01*
X144651076Y-81171946D01*
X144635170Y-81157530D01*
X144620754Y-81141624D01*
X144607966Y-81124381D01*
X144596930Y-81105968D01*
X144587751Y-81086562D01*
X144580519Y-81066350D01*
X144575303Y-81045526D01*
X144572153Y-81024291D01*
X144571100Y-81002850D01*
X144571100Y-80490350D01*
X144572153Y-80468909D01*
X144575303Y-80447674D01*
X144580519Y-80426850D01*
X144587751Y-80406638D01*
X144596930Y-80387232D01*
X144607966Y-80368819D01*
X144620754Y-80351576D01*
X144635170Y-80335670D01*
X144651076Y-80321254D01*
X144668319Y-80308466D01*
X144686732Y-80297430D01*
X144706138Y-80288251D01*
X144726350Y-80281019D01*
X144747174Y-80275803D01*
X144768409Y-80272653D01*
X144789850Y-80271600D01*
X145227350Y-80271600D01*
X145248791Y-80272653D01*
X145248791Y-80272653D01*
G37*
D17*
X145008600Y-80746600D03*
D10*
G36*
X143673791Y-80272653D02*
G01*
X143695026Y-80275803D01*
X143715850Y-80281019D01*
X143736062Y-80288251D01*
X143755468Y-80297430D01*
X143773881Y-80308466D01*
X143791124Y-80321254D01*
X143807030Y-80335670D01*
X143821446Y-80351576D01*
X143834234Y-80368819D01*
X143845270Y-80387232D01*
X143854449Y-80406638D01*
X143861681Y-80426850D01*
X143866897Y-80447674D01*
X143870047Y-80468909D01*
X143871100Y-80490350D01*
X143871100Y-81002850D01*
X143870047Y-81024291D01*
X143866897Y-81045526D01*
X143861681Y-81066350D01*
X143854449Y-81086562D01*
X143845270Y-81105968D01*
X143834234Y-81124381D01*
X143821446Y-81141624D01*
X143807030Y-81157530D01*
X143791124Y-81171946D01*
X143773881Y-81184734D01*
X143755468Y-81195770D01*
X143736062Y-81204949D01*
X143715850Y-81212181D01*
X143695026Y-81217397D01*
X143673791Y-81220547D01*
X143652350Y-81221600D01*
X143214850Y-81221600D01*
X143193409Y-81220547D01*
X143172174Y-81217397D01*
X143151350Y-81212181D01*
X143131138Y-81204949D01*
X143111732Y-81195770D01*
X143093319Y-81184734D01*
X143076076Y-81171946D01*
X143060170Y-81157530D01*
X143045754Y-81141624D01*
X143032966Y-81124381D01*
X143021930Y-81105968D01*
X143012751Y-81086562D01*
X143005519Y-81066350D01*
X143000303Y-81045526D01*
X142997153Y-81024291D01*
X142996100Y-81002850D01*
X142996100Y-80490350D01*
X142997153Y-80468909D01*
X143000303Y-80447674D01*
X143005519Y-80426850D01*
X143012751Y-80406638D01*
X143021930Y-80387232D01*
X143032966Y-80368819D01*
X143045754Y-80351576D01*
X143060170Y-80335670D01*
X143076076Y-80321254D01*
X143093319Y-80308466D01*
X143111732Y-80297430D01*
X143131138Y-80288251D01*
X143151350Y-80281019D01*
X143172174Y-80275803D01*
X143193409Y-80272653D01*
X143214850Y-80271600D01*
X143652350Y-80271600D01*
X143673791Y-80272653D01*
X143673791Y-80272653D01*
G37*
D17*
X143433600Y-80746600D03*
D10*
G36*
X150010691Y-77820753D02*
G01*
X150031926Y-77823903D01*
X150052750Y-77829119D01*
X150072962Y-77836351D01*
X150092368Y-77845530D01*
X150110781Y-77856566D01*
X150128024Y-77869354D01*
X150143930Y-77883770D01*
X150158346Y-77899676D01*
X150171134Y-77916919D01*
X150182170Y-77935332D01*
X150191349Y-77954738D01*
X150198581Y-77974950D01*
X150203797Y-77995774D01*
X150206947Y-78017009D01*
X150208000Y-78038450D01*
X150208000Y-78475950D01*
X150206947Y-78497391D01*
X150203797Y-78518626D01*
X150198581Y-78539450D01*
X150191349Y-78559662D01*
X150182170Y-78579068D01*
X150171134Y-78597481D01*
X150158346Y-78614724D01*
X150143930Y-78630630D01*
X150128024Y-78645046D01*
X150110781Y-78657834D01*
X150092368Y-78668870D01*
X150072962Y-78678049D01*
X150052750Y-78685281D01*
X150031926Y-78690497D01*
X150010691Y-78693647D01*
X149989250Y-78694700D01*
X149476750Y-78694700D01*
X149455309Y-78693647D01*
X149434074Y-78690497D01*
X149413250Y-78685281D01*
X149393038Y-78678049D01*
X149373632Y-78668870D01*
X149355219Y-78657834D01*
X149337976Y-78645046D01*
X149322070Y-78630630D01*
X149307654Y-78614724D01*
X149294866Y-78597481D01*
X149283830Y-78579068D01*
X149274651Y-78559662D01*
X149267419Y-78539450D01*
X149262203Y-78518626D01*
X149259053Y-78497391D01*
X149258000Y-78475950D01*
X149258000Y-78038450D01*
X149259053Y-78017009D01*
X149262203Y-77995774D01*
X149267419Y-77974950D01*
X149274651Y-77954738D01*
X149283830Y-77935332D01*
X149294866Y-77916919D01*
X149307654Y-77899676D01*
X149322070Y-77883770D01*
X149337976Y-77869354D01*
X149355219Y-77856566D01*
X149373632Y-77845530D01*
X149393038Y-77836351D01*
X149413250Y-77829119D01*
X149434074Y-77823903D01*
X149455309Y-77820753D01*
X149476750Y-77819700D01*
X149989250Y-77819700D01*
X150010691Y-77820753D01*
X150010691Y-77820753D01*
G37*
D17*
X149733000Y-78257200D03*
D10*
G36*
X150010691Y-79395753D02*
G01*
X150031926Y-79398903D01*
X150052750Y-79404119D01*
X150072962Y-79411351D01*
X150092368Y-79420530D01*
X150110781Y-79431566D01*
X150128024Y-79444354D01*
X150143930Y-79458770D01*
X150158346Y-79474676D01*
X150171134Y-79491919D01*
X150182170Y-79510332D01*
X150191349Y-79529738D01*
X150198581Y-79549950D01*
X150203797Y-79570774D01*
X150206947Y-79592009D01*
X150208000Y-79613450D01*
X150208000Y-80050950D01*
X150206947Y-80072391D01*
X150203797Y-80093626D01*
X150198581Y-80114450D01*
X150191349Y-80134662D01*
X150182170Y-80154068D01*
X150171134Y-80172481D01*
X150158346Y-80189724D01*
X150143930Y-80205630D01*
X150128024Y-80220046D01*
X150110781Y-80232834D01*
X150092368Y-80243870D01*
X150072962Y-80253049D01*
X150052750Y-80260281D01*
X150031926Y-80265497D01*
X150010691Y-80268647D01*
X149989250Y-80269700D01*
X149476750Y-80269700D01*
X149455309Y-80268647D01*
X149434074Y-80265497D01*
X149413250Y-80260281D01*
X149393038Y-80253049D01*
X149373632Y-80243870D01*
X149355219Y-80232834D01*
X149337976Y-80220046D01*
X149322070Y-80205630D01*
X149307654Y-80189724D01*
X149294866Y-80172481D01*
X149283830Y-80154068D01*
X149274651Y-80134662D01*
X149267419Y-80114450D01*
X149262203Y-80093626D01*
X149259053Y-80072391D01*
X149258000Y-80050950D01*
X149258000Y-79613450D01*
X149259053Y-79592009D01*
X149262203Y-79570774D01*
X149267419Y-79549950D01*
X149274651Y-79529738D01*
X149283830Y-79510332D01*
X149294866Y-79491919D01*
X149307654Y-79474676D01*
X149322070Y-79458770D01*
X149337976Y-79444354D01*
X149355219Y-79431566D01*
X149373632Y-79420530D01*
X149393038Y-79411351D01*
X149413250Y-79404119D01*
X149434074Y-79398903D01*
X149455309Y-79395753D01*
X149476750Y-79394700D01*
X149989250Y-79394700D01*
X150010691Y-79395753D01*
X150010691Y-79395753D01*
G37*
D17*
X149733000Y-79832200D03*
D10*
G36*
X145560504Y-77840804D02*
G01*
X145584773Y-77844404D01*
X145608571Y-77850365D01*
X145631671Y-77858630D01*
X145653849Y-77869120D01*
X145674893Y-77881733D01*
X145694598Y-77896347D01*
X145712777Y-77912823D01*
X145729253Y-77931002D01*
X145743867Y-77950707D01*
X145756480Y-77971751D01*
X145766970Y-77993929D01*
X145775235Y-78017029D01*
X145781196Y-78040827D01*
X145784796Y-78065096D01*
X145786000Y-78089600D01*
X145786000Y-79339600D01*
X145784796Y-79364104D01*
X145781196Y-79388373D01*
X145775235Y-79412171D01*
X145766970Y-79435271D01*
X145756480Y-79457449D01*
X145743867Y-79478493D01*
X145729253Y-79498198D01*
X145712777Y-79516377D01*
X145694598Y-79532853D01*
X145674893Y-79547467D01*
X145653849Y-79560080D01*
X145631671Y-79570570D01*
X145608571Y-79578835D01*
X145584773Y-79584796D01*
X145560504Y-79588396D01*
X145536000Y-79589600D01*
X144786000Y-79589600D01*
X144761496Y-79588396D01*
X144737227Y-79584796D01*
X144713429Y-79578835D01*
X144690329Y-79570570D01*
X144668151Y-79560080D01*
X144647107Y-79547467D01*
X144627402Y-79532853D01*
X144609223Y-79516377D01*
X144592747Y-79498198D01*
X144578133Y-79478493D01*
X144565520Y-79457449D01*
X144555030Y-79435271D01*
X144546765Y-79412171D01*
X144540804Y-79388373D01*
X144537204Y-79364104D01*
X144536000Y-79339600D01*
X144536000Y-78089600D01*
X144537204Y-78065096D01*
X144540804Y-78040827D01*
X144546765Y-78017029D01*
X144555030Y-77993929D01*
X144565520Y-77971751D01*
X144578133Y-77950707D01*
X144592747Y-77931002D01*
X144609223Y-77912823D01*
X144627402Y-77896347D01*
X144647107Y-77881733D01*
X144668151Y-77869120D01*
X144690329Y-77858630D01*
X144713429Y-77850365D01*
X144737227Y-77844404D01*
X144761496Y-77840804D01*
X144786000Y-77839600D01*
X145536000Y-77839600D01*
X145560504Y-77840804D01*
X145560504Y-77840804D01*
G37*
D18*
X145161000Y-78714600D03*
D10*
G36*
X148360504Y-77840804D02*
G01*
X148384773Y-77844404D01*
X148408571Y-77850365D01*
X148431671Y-77858630D01*
X148453849Y-77869120D01*
X148474893Y-77881733D01*
X148494598Y-77896347D01*
X148512777Y-77912823D01*
X148529253Y-77931002D01*
X148543867Y-77950707D01*
X148556480Y-77971751D01*
X148566970Y-77993929D01*
X148575235Y-78017029D01*
X148581196Y-78040827D01*
X148584796Y-78065096D01*
X148586000Y-78089600D01*
X148586000Y-79339600D01*
X148584796Y-79364104D01*
X148581196Y-79388373D01*
X148575235Y-79412171D01*
X148566970Y-79435271D01*
X148556480Y-79457449D01*
X148543867Y-79478493D01*
X148529253Y-79498198D01*
X148512777Y-79516377D01*
X148494598Y-79532853D01*
X148474893Y-79547467D01*
X148453849Y-79560080D01*
X148431671Y-79570570D01*
X148408571Y-79578835D01*
X148384773Y-79584796D01*
X148360504Y-79588396D01*
X148336000Y-79589600D01*
X147586000Y-79589600D01*
X147561496Y-79588396D01*
X147537227Y-79584796D01*
X147513429Y-79578835D01*
X147490329Y-79570570D01*
X147468151Y-79560080D01*
X147447107Y-79547467D01*
X147427402Y-79532853D01*
X147409223Y-79516377D01*
X147392747Y-79498198D01*
X147378133Y-79478493D01*
X147365520Y-79457449D01*
X147355030Y-79435271D01*
X147346765Y-79412171D01*
X147340804Y-79388373D01*
X147337204Y-79364104D01*
X147336000Y-79339600D01*
X147336000Y-78089600D01*
X147337204Y-78065096D01*
X147340804Y-78040827D01*
X147346765Y-78017029D01*
X147355030Y-77993929D01*
X147365520Y-77971751D01*
X147378133Y-77950707D01*
X147392747Y-77931002D01*
X147409223Y-77912823D01*
X147427402Y-77896347D01*
X147447107Y-77881733D01*
X147468151Y-77869120D01*
X147490329Y-77858630D01*
X147513429Y-77850365D01*
X147537227Y-77844404D01*
X147561496Y-77840804D01*
X147586000Y-77839600D01*
X148336000Y-77839600D01*
X148360504Y-77840804D01*
X148360504Y-77840804D01*
G37*
D18*
X147961000Y-78714600D03*
D10*
G36*
X142178304Y-83176804D02*
G01*
X142202573Y-83180404D01*
X142226371Y-83186365D01*
X142249471Y-83194630D01*
X142271649Y-83205120D01*
X142292693Y-83217733D01*
X142312398Y-83232347D01*
X142330577Y-83248823D01*
X142347053Y-83267002D01*
X142361667Y-83286707D01*
X142374280Y-83307751D01*
X142384770Y-83329929D01*
X142393035Y-83353029D01*
X142398996Y-83376827D01*
X142402596Y-83401096D01*
X142403800Y-83425600D01*
X142403800Y-84175600D01*
X142402596Y-84200104D01*
X142398996Y-84224373D01*
X142393035Y-84248171D01*
X142384770Y-84271271D01*
X142374280Y-84293449D01*
X142361667Y-84314493D01*
X142347053Y-84334198D01*
X142330577Y-84352377D01*
X142312398Y-84368853D01*
X142292693Y-84383467D01*
X142271649Y-84396080D01*
X142249471Y-84406570D01*
X142226371Y-84414835D01*
X142202573Y-84420796D01*
X142178304Y-84424396D01*
X142153800Y-84425600D01*
X140903800Y-84425600D01*
X140879296Y-84424396D01*
X140855027Y-84420796D01*
X140831229Y-84414835D01*
X140808129Y-84406570D01*
X140785951Y-84396080D01*
X140764907Y-84383467D01*
X140745202Y-84368853D01*
X140727023Y-84352377D01*
X140710547Y-84334198D01*
X140695933Y-84314493D01*
X140683320Y-84293449D01*
X140672830Y-84271271D01*
X140664565Y-84248171D01*
X140658604Y-84224373D01*
X140655004Y-84200104D01*
X140653800Y-84175600D01*
X140653800Y-83425600D01*
X140655004Y-83401096D01*
X140658604Y-83376827D01*
X140664565Y-83353029D01*
X140672830Y-83329929D01*
X140683320Y-83307751D01*
X140695933Y-83286707D01*
X140710547Y-83267002D01*
X140727023Y-83248823D01*
X140745202Y-83232347D01*
X140764907Y-83217733D01*
X140785951Y-83205120D01*
X140808129Y-83194630D01*
X140831229Y-83186365D01*
X140855027Y-83180404D01*
X140879296Y-83176804D01*
X140903800Y-83175600D01*
X142153800Y-83175600D01*
X142178304Y-83176804D01*
X142178304Y-83176804D01*
G37*
D18*
X141528800Y-83800600D03*
D10*
G36*
X142178304Y-80376804D02*
G01*
X142202573Y-80380404D01*
X142226371Y-80386365D01*
X142249471Y-80394630D01*
X142271649Y-80405120D01*
X142292693Y-80417733D01*
X142312398Y-80432347D01*
X142330577Y-80448823D01*
X142347053Y-80467002D01*
X142361667Y-80486707D01*
X142374280Y-80507751D01*
X142384770Y-80529929D01*
X142393035Y-80553029D01*
X142398996Y-80576827D01*
X142402596Y-80601096D01*
X142403800Y-80625600D01*
X142403800Y-81375600D01*
X142402596Y-81400104D01*
X142398996Y-81424373D01*
X142393035Y-81448171D01*
X142384770Y-81471271D01*
X142374280Y-81493449D01*
X142361667Y-81514493D01*
X142347053Y-81534198D01*
X142330577Y-81552377D01*
X142312398Y-81568853D01*
X142292693Y-81583467D01*
X142271649Y-81596080D01*
X142249471Y-81606570D01*
X142226371Y-81614835D01*
X142202573Y-81620796D01*
X142178304Y-81624396D01*
X142153800Y-81625600D01*
X140903800Y-81625600D01*
X140879296Y-81624396D01*
X140855027Y-81620796D01*
X140831229Y-81614835D01*
X140808129Y-81606570D01*
X140785951Y-81596080D01*
X140764907Y-81583467D01*
X140745202Y-81568853D01*
X140727023Y-81552377D01*
X140710547Y-81534198D01*
X140695933Y-81514493D01*
X140683320Y-81493449D01*
X140672830Y-81471271D01*
X140664565Y-81448171D01*
X140658604Y-81424373D01*
X140655004Y-81400104D01*
X140653800Y-81375600D01*
X140653800Y-80625600D01*
X140655004Y-80601096D01*
X140658604Y-80576827D01*
X140664565Y-80553029D01*
X140672830Y-80529929D01*
X140683320Y-80507751D01*
X140695933Y-80486707D01*
X140710547Y-80467002D01*
X140727023Y-80448823D01*
X140745202Y-80432347D01*
X140764907Y-80417733D01*
X140785951Y-80405120D01*
X140808129Y-80394630D01*
X140831229Y-80386365D01*
X140855027Y-80380404D01*
X140879296Y-80376804D01*
X140903800Y-80375600D01*
X142153800Y-80375600D01*
X142178304Y-80376804D01*
X142178304Y-80376804D01*
G37*
D18*
X141528800Y-81000600D03*
D10*
G36*
X148373191Y-80272653D02*
G01*
X148394426Y-80275803D01*
X148415250Y-80281019D01*
X148435462Y-80288251D01*
X148454868Y-80297430D01*
X148473281Y-80308466D01*
X148490524Y-80321254D01*
X148506430Y-80335670D01*
X148520846Y-80351576D01*
X148533634Y-80368819D01*
X148544670Y-80387232D01*
X148553849Y-80406638D01*
X148561081Y-80426850D01*
X148566297Y-80447674D01*
X148569447Y-80468909D01*
X148570500Y-80490350D01*
X148570500Y-81002850D01*
X148569447Y-81024291D01*
X148566297Y-81045526D01*
X148561081Y-81066350D01*
X148553849Y-81086562D01*
X148544670Y-81105968D01*
X148533634Y-81124381D01*
X148520846Y-81141624D01*
X148506430Y-81157530D01*
X148490524Y-81171946D01*
X148473281Y-81184734D01*
X148454868Y-81195770D01*
X148435462Y-81204949D01*
X148415250Y-81212181D01*
X148394426Y-81217397D01*
X148373191Y-81220547D01*
X148351750Y-81221600D01*
X147914250Y-81221600D01*
X147892809Y-81220547D01*
X147871574Y-81217397D01*
X147850750Y-81212181D01*
X147830538Y-81204949D01*
X147811132Y-81195770D01*
X147792719Y-81184734D01*
X147775476Y-81171946D01*
X147759570Y-81157530D01*
X147745154Y-81141624D01*
X147732366Y-81124381D01*
X147721330Y-81105968D01*
X147712151Y-81086562D01*
X147704919Y-81066350D01*
X147699703Y-81045526D01*
X147696553Y-81024291D01*
X147695500Y-81002850D01*
X147695500Y-80490350D01*
X147696553Y-80468909D01*
X147699703Y-80447674D01*
X147704919Y-80426850D01*
X147712151Y-80406638D01*
X147721330Y-80387232D01*
X147732366Y-80368819D01*
X147745154Y-80351576D01*
X147759570Y-80335670D01*
X147775476Y-80321254D01*
X147792719Y-80308466D01*
X147811132Y-80297430D01*
X147830538Y-80288251D01*
X147850750Y-80281019D01*
X147871574Y-80275803D01*
X147892809Y-80272653D01*
X147914250Y-80271600D01*
X148351750Y-80271600D01*
X148373191Y-80272653D01*
X148373191Y-80272653D01*
G37*
D17*
X148133000Y-80746600D03*
D10*
G36*
X146798191Y-80272653D02*
G01*
X146819426Y-80275803D01*
X146840250Y-80281019D01*
X146860462Y-80288251D01*
X146879868Y-80297430D01*
X146898281Y-80308466D01*
X146915524Y-80321254D01*
X146931430Y-80335670D01*
X146945846Y-80351576D01*
X146958634Y-80368819D01*
X146969670Y-80387232D01*
X146978849Y-80406638D01*
X146986081Y-80426850D01*
X146991297Y-80447674D01*
X146994447Y-80468909D01*
X146995500Y-80490350D01*
X146995500Y-81002850D01*
X146994447Y-81024291D01*
X146991297Y-81045526D01*
X146986081Y-81066350D01*
X146978849Y-81086562D01*
X146969670Y-81105968D01*
X146958634Y-81124381D01*
X146945846Y-81141624D01*
X146931430Y-81157530D01*
X146915524Y-81171946D01*
X146898281Y-81184734D01*
X146879868Y-81195770D01*
X146860462Y-81204949D01*
X146840250Y-81212181D01*
X146819426Y-81217397D01*
X146798191Y-81220547D01*
X146776750Y-81221600D01*
X146339250Y-81221600D01*
X146317809Y-81220547D01*
X146296574Y-81217397D01*
X146275750Y-81212181D01*
X146255538Y-81204949D01*
X146236132Y-81195770D01*
X146217719Y-81184734D01*
X146200476Y-81171946D01*
X146184570Y-81157530D01*
X146170154Y-81141624D01*
X146157366Y-81124381D01*
X146146330Y-81105968D01*
X146137151Y-81086562D01*
X146129919Y-81066350D01*
X146124703Y-81045526D01*
X146121553Y-81024291D01*
X146120500Y-81002850D01*
X146120500Y-80490350D01*
X146121553Y-80468909D01*
X146124703Y-80447674D01*
X146129919Y-80426850D01*
X146137151Y-80406638D01*
X146146330Y-80387232D01*
X146157366Y-80368819D01*
X146170154Y-80351576D01*
X146184570Y-80335670D01*
X146200476Y-80321254D01*
X146217719Y-80308466D01*
X146236132Y-80297430D01*
X146255538Y-80288251D01*
X146275750Y-80281019D01*
X146296574Y-80275803D01*
X146317809Y-80272653D01*
X146339250Y-80271600D01*
X146776750Y-80271600D01*
X146798191Y-80272653D01*
X146798191Y-80272653D01*
G37*
D17*
X146558000Y-80746600D03*
D10*
G36*
X150615104Y-81854004D02*
G01*
X150639373Y-81857604D01*
X150663171Y-81863565D01*
X150686271Y-81871830D01*
X150708449Y-81882320D01*
X150729493Y-81894933D01*
X150749198Y-81909547D01*
X150767377Y-81926023D01*
X150783853Y-81944202D01*
X150798467Y-81963907D01*
X150811080Y-81984951D01*
X150821570Y-82007129D01*
X150829835Y-82030229D01*
X150835796Y-82054027D01*
X150839396Y-82078296D01*
X150840600Y-82102800D01*
X150840600Y-83352800D01*
X150839396Y-83377304D01*
X150835796Y-83401573D01*
X150829835Y-83425371D01*
X150821570Y-83448471D01*
X150811080Y-83470649D01*
X150798467Y-83491693D01*
X150783853Y-83511398D01*
X150767377Y-83529577D01*
X150749198Y-83546053D01*
X150729493Y-83560667D01*
X150708449Y-83573280D01*
X150686271Y-83583770D01*
X150663171Y-83592035D01*
X150639373Y-83597996D01*
X150615104Y-83601596D01*
X150590600Y-83602800D01*
X149840600Y-83602800D01*
X149816096Y-83601596D01*
X149791827Y-83597996D01*
X149768029Y-83592035D01*
X149744929Y-83583770D01*
X149722751Y-83573280D01*
X149701707Y-83560667D01*
X149682002Y-83546053D01*
X149663823Y-83529577D01*
X149647347Y-83511398D01*
X149632733Y-83491693D01*
X149620120Y-83470649D01*
X149609630Y-83448471D01*
X149601365Y-83425371D01*
X149595404Y-83401573D01*
X149591804Y-83377304D01*
X149590600Y-83352800D01*
X149590600Y-82102800D01*
X149591804Y-82078296D01*
X149595404Y-82054027D01*
X149601365Y-82030229D01*
X149609630Y-82007129D01*
X149620120Y-81984951D01*
X149632733Y-81963907D01*
X149647347Y-81944202D01*
X149663823Y-81926023D01*
X149682002Y-81909547D01*
X149701707Y-81894933D01*
X149722751Y-81882320D01*
X149744929Y-81871830D01*
X149768029Y-81863565D01*
X149791827Y-81857604D01*
X149816096Y-81854004D01*
X149840600Y-81852800D01*
X150590600Y-81852800D01*
X150615104Y-81854004D01*
X150615104Y-81854004D01*
G37*
D18*
X150215600Y-82727800D03*
D10*
G36*
X147815104Y-81854004D02*
G01*
X147839373Y-81857604D01*
X147863171Y-81863565D01*
X147886271Y-81871830D01*
X147908449Y-81882320D01*
X147929493Y-81894933D01*
X147949198Y-81909547D01*
X147967377Y-81926023D01*
X147983853Y-81944202D01*
X147998467Y-81963907D01*
X148011080Y-81984951D01*
X148021570Y-82007129D01*
X148029835Y-82030229D01*
X148035796Y-82054027D01*
X148039396Y-82078296D01*
X148040600Y-82102800D01*
X148040600Y-83352800D01*
X148039396Y-83377304D01*
X148035796Y-83401573D01*
X148029835Y-83425371D01*
X148021570Y-83448471D01*
X148011080Y-83470649D01*
X147998467Y-83491693D01*
X147983853Y-83511398D01*
X147967377Y-83529577D01*
X147949198Y-83546053D01*
X147929493Y-83560667D01*
X147908449Y-83573280D01*
X147886271Y-83583770D01*
X147863171Y-83592035D01*
X147839373Y-83597996D01*
X147815104Y-83601596D01*
X147790600Y-83602800D01*
X147040600Y-83602800D01*
X147016096Y-83601596D01*
X146991827Y-83597996D01*
X146968029Y-83592035D01*
X146944929Y-83583770D01*
X146922751Y-83573280D01*
X146901707Y-83560667D01*
X146882002Y-83546053D01*
X146863823Y-83529577D01*
X146847347Y-83511398D01*
X146832733Y-83491693D01*
X146820120Y-83470649D01*
X146809630Y-83448471D01*
X146801365Y-83425371D01*
X146795404Y-83401573D01*
X146791804Y-83377304D01*
X146790600Y-83352800D01*
X146790600Y-82102800D01*
X146791804Y-82078296D01*
X146795404Y-82054027D01*
X146801365Y-82030229D01*
X146809630Y-82007129D01*
X146820120Y-81984951D01*
X146832733Y-81963907D01*
X146847347Y-81944202D01*
X146863823Y-81926023D01*
X146882002Y-81909547D01*
X146901707Y-81894933D01*
X146922751Y-81882320D01*
X146944929Y-81871830D01*
X146968029Y-81863565D01*
X146991827Y-81857604D01*
X147016096Y-81854004D01*
X147040600Y-81852800D01*
X147790600Y-81852800D01*
X147815104Y-81854004D01*
X147815104Y-81854004D01*
G37*
D18*
X147415600Y-82727800D03*
D19*
X151866600Y-71755000D03*
X147370800Y-84531200D03*
X151866600Y-73609200D03*
X148869400Y-84582000D03*
X139649200Y-73583800D03*
X139623800Y-75565000D03*
X139700000Y-71755000D03*
D20*
X145161000Y-79019200D02*
X143433600Y-80746600D01*
X145161000Y-78714600D02*
X145161000Y-79019200D01*
X143779200Y-82440600D02*
X143779200Y-82645600D01*
X144067198Y-82389800D02*
X144947199Y-83269801D01*
X143652200Y-82389800D02*
X144067198Y-82389800D01*
X146690600Y-82727800D02*
X147415600Y-82727800D01*
X146148599Y-83269801D02*
X146690600Y-82727800D01*
X144947199Y-83269801D02*
X146148599Y-83269801D01*
X147370800Y-82772600D02*
X147415600Y-82727800D01*
X147370800Y-84531200D02*
X147370800Y-82772600D01*
X151850000Y-72305000D02*
X151866600Y-72288400D01*
X143652200Y-80965200D02*
X143433600Y-80746600D01*
X143652200Y-82389800D02*
X143652200Y-80965200D01*
X151316600Y-72305000D02*
X151866600Y-71755000D01*
X150170000Y-72305000D02*
X151316600Y-72305000D01*
X144983200Y-86360000D02*
X146050000Y-87426800D01*
X143439400Y-86360000D02*
X144983200Y-86360000D01*
X143439400Y-87356200D02*
X143510000Y-87426800D01*
X143439400Y-86360000D02*
X143439400Y-87356200D01*
X150114200Y-82727800D02*
X148133000Y-80746600D01*
X150215600Y-82727800D02*
X150114200Y-82727800D01*
X148869400Y-84074000D02*
X150215600Y-82727800D01*
X148869400Y-84582000D02*
X148869400Y-84074000D01*
X146899999Y-88276799D02*
X146050000Y-87426800D01*
X147250001Y-88626801D02*
X146899999Y-88276799D01*
X149720001Y-88626801D02*
X147250001Y-88626801D01*
X149790001Y-88556801D02*
X149720001Y-88626801D01*
X149790001Y-85502601D02*
X149790001Y-88556801D01*
X148869400Y-84582000D02*
X149790001Y-85502601D01*
X151762400Y-73505000D02*
X151866600Y-73609200D01*
X150170000Y-73505000D02*
X151762400Y-73505000D01*
X141528800Y-81725600D02*
X141528800Y-81000600D01*
X141528800Y-81952054D02*
X141528800Y-81725600D01*
X142846547Y-83269801D02*
X141528800Y-81952054D01*
X144112201Y-83269801D02*
X142846547Y-83269801D01*
X144602200Y-83759800D02*
X144112201Y-83269801D01*
X144602200Y-84589800D02*
X144602200Y-83759800D01*
X140303790Y-83177064D02*
X140303790Y-84424136D01*
X141528800Y-81952054D02*
X140303790Y-83177064D01*
X141855010Y-84775610D02*
X143439400Y-86360000D01*
X140655264Y-84775610D02*
X141855010Y-84775610D01*
X140303790Y-84424136D02*
X140655264Y-84775610D01*
X145552200Y-81752400D02*
X146558000Y-80746600D01*
X145552200Y-82389800D02*
X145552200Y-81752400D01*
X149078600Y-79832200D02*
X147961000Y-78714600D01*
X149733000Y-79832200D02*
X149078600Y-79832200D01*
X144020000Y-76405000D02*
X144020000Y-76935002D01*
X142433153Y-78257400D02*
X142079600Y-78257400D01*
X142567600Y-78257400D02*
X142433153Y-78257400D01*
X144020000Y-76805000D02*
X142567600Y-78257400D01*
X144020000Y-76405000D02*
X144020000Y-76805000D01*
X142425153Y-79375000D02*
X142071600Y-79375000D01*
X142650000Y-79375000D02*
X142425153Y-79375000D01*
X145220000Y-76805000D02*
X142650000Y-79375000D01*
X145220000Y-76405000D02*
X145220000Y-76805000D01*
X145552200Y-85419800D02*
X145552200Y-84589800D01*
X145502199Y-85469801D02*
X145552200Y-85419800D01*
X143997199Y-85469801D02*
X145502199Y-85469801D01*
X143652200Y-85124802D02*
X143997199Y-85469801D01*
X143652200Y-84589800D02*
X143652200Y-85124802D01*
X142863000Y-83800600D02*
X143652200Y-84589800D01*
X141528800Y-83800600D02*
X142863000Y-83800600D01*
X146633001Y-85469801D02*
X145502199Y-85469801D01*
X148590000Y-87426800D02*
X146633001Y-85469801D01*
X139728000Y-73505000D02*
X139649200Y-73583800D01*
X141470000Y-73505000D02*
X139728000Y-73505000D01*
X140483800Y-74705000D02*
X139623800Y-75565000D01*
X141470000Y-74705000D02*
X140483800Y-74705000D01*
X139716600Y-72305000D02*
X139700000Y-72288400D01*
X140250000Y-72305000D02*
X139700000Y-71755000D01*
X141470000Y-72305000D02*
X140250000Y-72305000D01*
X150170000Y-77820200D02*
X149733000Y-78257200D01*
X150170000Y-74705000D02*
X150170000Y-77820200D01*
X147620000Y-76805000D02*
X147620000Y-76405000D01*
X146519999Y-77905001D02*
X147620000Y-76805000D01*
X146519999Y-79235201D02*
X146519999Y-77905001D01*
X145008600Y-80746600D02*
X146519999Y-79235201D01*
M02*
