<?xml version="1.0" encoding="UTF-8" standalone="no"?>
<!-- Created with Inkscape (http://www.inkscape.org/) -->

<svg
   xmlns:dc="http://purl.org/dc/elements/1.1/"
   xmlns:cc="http://creativecommons.org/ns#"
   xmlns:rdf="http://www.w3.org/1999/02/22-rdf-syntax-ns#"
   xmlns:svg="http://www.w3.org/2000/svg"
   xmlns="http://www.w3.org/2000/svg"
   xmlns:sodipodi="http://sodipodi.sourceforge.net/DTD/sodipodi-0.dtd"
   xmlns:inkscape="http://www.inkscape.org/namespaces/inkscape"
   id="svg2"
   version="1.1"
   inkscape:version="0.91 r13725"
   xml:space="preserve"
   width="1052.4"
   height="744.15002"
   viewBox="0 0 1052.4 744.15002"
   sodipodi:docname="stencil.svg"><metadata
     id="metadata8"><rdf:RDF><cc:Work
         rdf:about=""><dc:format>image/svg+xml</dc:format><dc:type
           rdf:resource="http://purl.org/dc/dcmitype/StillImage" /><dc:title></dc:title></cc:Work></rdf:RDF></metadata><defs
     id="defs6" /><sodipodi:namedview
     pagecolor="#ffffff"
     bordercolor="#666666"
     borderopacity="1"
     objecttolerance="10"
     gridtolerance="10"
     guidetolerance="10"
     inkscape:pageopacity="0"
     inkscape:pageshadow="2"
     inkscape:window-width="1920"
     inkscape:window-height="1062"
     id="namedview4"
     showgrid="false"
     inkscape:zoom="0.3164196"
     inkscape:cx="526.20001"
     inkscape:cy="372.07501"
     inkscape:window-x="0"
     inkscape:window-y="1"
     inkscape:window-maximized="1"
     inkscape:current-layer="g10" /><g
     id="g10"
     inkscape:groupmode="layer"
     inkscape:label="stencil"
     transform="matrix(0.9375,0,0,0.9375,0,1.2500001e-6)"><g
       id="g16"
       transform="translate(-525.88398,-313.50776)"><path
         d="m 545.76001,340.48001 55.20001,0"
         style="fill:none;stroke:#000000;stroke-width:0.16;stroke-linecap:butt;stroke-linejoin:miter;stroke-miterlimit:10;stroke-dasharray:none;stroke-opacity:1"
         id="path18"
         inkscape:connector-curvature="0" /></g><g
       id="g20"
       transform="translate(-525.88398,-313.50776)"><path
         d="m 545.76001,402.88 0,-62.39999"
         style="fill:none;stroke:#000000;stroke-width:0.16;stroke-linecap:butt;stroke-linejoin:miter;stroke-miterlimit:10;stroke-dasharray:none;stroke-opacity:1"
         id="path22"
         inkscape:connector-curvature="0" /></g><g
       id="g24"
       transform="translate(-525.88398,-313.50776)"><path
         d="m 548.15997,402.88 -2.39996,0"
         style="fill:none;stroke:#000000;stroke-width:0.16;stroke-linecap:butt;stroke-linejoin:miter;stroke-miterlimit:10;stroke-dasharray:none;stroke-opacity:1"
         id="path26"
         inkscape:connector-curvature="0" /></g><g
       id="g28"
       transform="translate(-525.88398,-313.50776)"><path
         d="m 557.76001,402.88 -9.60004,0"
         style="fill:none;stroke:#000000;stroke-width:0.16;stroke-linecap:butt;stroke-linejoin:miter;stroke-miterlimit:10;stroke-dasharray:none;stroke-opacity:1"
         id="path30"
         inkscape:connector-curvature="0" /></g><g
       id="g32"
       transform="translate(-525.88398,-313.50776)"><path
         d="m 600.96002,398.07999 0,4.80001"
         style="fill:none;stroke:#000000;stroke-width:0.16;stroke-linecap:butt;stroke-linejoin:miter;stroke-miterlimit:10;stroke-dasharray:none;stroke-opacity:1"
         id="path34"
         inkscape:connector-curvature="0" /></g><g
       id="g36"
       transform="translate(-525.88398,-313.50776)"><path
         d="m 600.96002,340.48001 0,57.59998"
         style="fill:none;stroke:#000000;stroke-width:0.16;stroke-linecap:butt;stroke-linejoin:miter;stroke-miterlimit:10;stroke-dasharray:none;stroke-opacity:1"
         id="path38"
         inkscape:connector-curvature="0" /></g><g
       id="g40"
       transform="translate(-525.88398,-313.50776)"><path
         d="m 600.96002,402.88 -9.60004,0"
         style="fill:none;stroke:#000000;stroke-width:0.16;stroke-linecap:butt;stroke-linejoin:miter;stroke-miterlimit:10;stroke-dasharray:none;stroke-opacity:1"
         id="path42"
         inkscape:connector-curvature="0" /></g><g
       id="g44"
       transform="translate(-525.88398,-313.50776)"><path
         d="m 557.76001,422.07999 0,-19.19999"
         style="fill:none;stroke:#000000;stroke-width:0.16;stroke-linecap:butt;stroke-linejoin:miter;stroke-miterlimit:10;stroke-dasharray:none;stroke-opacity:1"
         id="path46"
         inkscape:connector-curvature="0" /></g><g
       id="g48"
       transform="translate(-525.88398,-313.50776)"><path
         d="m 591.35998,422.07999 -33.59997,0"
         style="fill:none;stroke:#000000;stroke-width:0.16;stroke-linecap:butt;stroke-linejoin:miter;stroke-miterlimit:10;stroke-dasharray:none;stroke-opacity:1"
         id="path50"
         inkscape:connector-curvature="0" /></g><g
       id="g52"
       transform="translate(-525.88398,-313.50776)"><path
         d="m 591.35998,402.88 0,19.19999"
         style="fill:none;stroke:#000000;stroke-width:0.16;stroke-linecap:butt;stroke-linejoin:miter;stroke-miterlimit:10;stroke-dasharray:none;stroke-opacity:1"
         id="path54"
         inkscape:connector-curvature="0" /></g><g
       id="g56"
       transform="translate(60.676024,66.012235)"><path
         d="m 0,0 0,-0.32 0.32,-0.32 0.16,0 0.16,-0.16 2.56,0 0.16,0.16 0.16,0 0.16,0.16 0,0.16 0.16,0 0,2.72 -0.16,0.16 0,0.16 -0.16,0 -0.16,0.16 -2.88,0 -0.16,-0.16 -0.16,0 0,-0.16 L 0,2.56 0,2.08 -0.16,1.92 -0.16,0.16 0,0 Z"
         style="fill:#000000;fill-opacity:1;fill-rule:nonzero;stroke:none"
         id="path58"
         inkscape:connector-curvature="0" /></g><g
       id="g60"
       transform="translate(55.396054,74.492245)"><path
         d="m 0,0 0.32,0 0,0.16 0.16,0 0.32,0.32 0,0.16 0.16,0 0,5.76 -0.16,0.16 0,0.16 -0.16,0 -0.16,0.16 -0.16,0 0,0.16 -3.68,0 -0.16,-0.16 -0.16,0 0,-0.16 -0.16,0 L -4,6.56 -4,6.4 -4.16,6.24 -4.16,0.8 -4,0.64 l 0,-0.16 0.16,0 0,-0.16 0.16,0 0,-0.16 0.16,0 L -3.36,0 0,0 Z"
         style="fill:#000000;fill-opacity:1;fill-rule:nonzero;stroke:none"
         id="path62"
         inkscape:connector-curvature="0" /></g><g
       id="g64"
       transform="translate(57.476004,68.572235)"><path
         d="m 0,0 0.32,0 0.16,0.16 0.16,0 0,0.16 0.16,0 0,0.32 0.16,0 0,2.56 -0.16,0.16 0,0.16 -0.32,0.32 -0.16,0 -0.16,0.16 -2.24,0 0,-0.16 -0.32,0 0,-0.16 -0.16,0 0,-0.16 -0.16,0 0,-3.04 0.32,-0.32 0.16,0 L -2.24,0 0,0 Z"
         style="fill:#000000;fill-opacity:1;fill-rule:nonzero;stroke:none"
         id="path66"
         inkscape:connector-curvature="0" /></g><g
       id="g68"
       transform="translate(51.556024,68.572235)"><path
         d="m 0,0 0.32,0 0,0.16 0.16,0 0.32,0.32 0,3.04 -0.16,0 0,0.16 -0.16,0 0,0.16 -0.32,0 0,0.16 -2.24,0 -0.16,-0.16 -0.16,0 -0.32,-0.32 0,-0.16 -0.16,-0.16 0,-2.56 0.16,0 0,-0.32 0.16,0 0,-0.16 0.16,0 L -2.24,0 0,0 Z"
         style="fill:#000000;fill-opacity:1;fill-rule:nonzero;stroke:none"
         id="path70"
         inkscape:connector-curvature="0" /></g><g
       id="g72"
       transform="translate(66.116024,74.492245)"><path
         d="m 0,0 0.16,0 0,0.16 0.16,0 0.48,0.48 0,5.92 -0.16,0 0,0.16 -0.16,0 -0.16,0.16 -0.16,0 0,0.16 -3.68,0 -0.16,-0.16 -0.16,0 0,-0.16 -0.16,0 -0.16,-0.16 0,-0.32 -0.16,0 0,-5.44 0.16,0 0,-0.32 0.16,0 0,-0.16 0.16,0 0,-0.16 0.16,0 L -3.52,0 0,0 Z"
         style="fill:#000000;fill-opacity:1;fill-rule:nonzero;stroke:none"
         id="path74"
         inkscape:connector-curvature="0" /></g><g
       id="g76"
       transform="translate(60.676024,60.092255)"><path
         d="m 0,0 0,-0.48 0.16,0 0.16,-0.16 0.16,0 0,-0.16 2.88,0 0,0.16 0.16,0 0.32,0.32 0,2.72 -0.16,0 0,0.16 -0.16,0.16 -0.16,0 0,0.16 -2.88,0 0,-0.16 -0.16,0 L 0,2.4 0,2.08 -0.16,1.92 -0.16,0.16 0,0 Z"
         style="fill:#000000;fill-opacity:1;fill-rule:nonzero;stroke:none"
         id="path78"
         inkscape:connector-curvature="0" /></g><g
       id="g80"
       transform="translate(45.796014,68.572235)"><path
         d="m 0,0 0.16,0 0.16,0.16 0.16,0 0,0.16 0.16,0 0,0.16 0.16,0.16 0,2.72 -0.16,0 0,0.32 -0.16,0 -0.16,0.16 -0.16,0 L 0,4 l -2.24,0 0,-0.16 -0.32,0 0,-0.16 -0.16,0 0,-0.16 -0.16,0 0,-3.04 0.32,-0.32 0.16,0 L -2.4,0 0,0 Z"
         style="fill:#000000;fill-opacity:1;fill-rule:nonzero;stroke:none"
         id="path82"
         inkscape:connector-curvature="0" /></g><g
       id="g84"
       transform="translate(39.716004,68.572235)"><path
         d="m 0,0 0.32,0 0.16,0.16 0.16,0 0,0.16 0.16,0 0,0.32 0.16,0 0,2.56 -0.16,0.16 0,0.16 -0.32,0.32 -0.16,0 -0.16,0.16 -2.24,0 0,-0.16 -0.32,0 0,-0.16 -0.16,0 0,-0.16 -0.16,0 0,-3.04 0.32,-0.32 0.16,0 L -2.24,0 0,0 Z"
         style="fill:#000000;fill-opacity:1;fill-rule:nonzero;stroke:none"
         id="path86"
         inkscape:connector-curvature="0" /></g><g
       id="g88"
       transform="translate(35.076044,83.772245)"><path
         d="m 0,0 0,0.16 -0.16,0 0,0.32 -0.16,0 0,0.16 -0.16,0 0,0.16 -5.92,0 -0.32,-0.32 -0.16,0 0,-0.32 -0.16,-0.16 0,-3.36 0.16,-0.16 0,-0.32 0.16,0 0,-0.16 0.16,0 0.16,-0.16 0.16,0 0.16,-0.16 5.12,0 0.16,0.16 0.32,0 0,0.16 0.16,0 0.16,0.16 0,0.16 L 0,-3.52 0,0 Z"
         style="fill:#000000;fill-opacity:1;fill-rule:nonzero;stroke:none"
         id="path90"
         inkscape:connector-curvature="0" /></g><g
       id="g92"
       transform="translate(35.076044,73.052245)"><path
         d="m 0,0 0,0.32 -0.16,0 0,0.32 -0.16,0 0,0.16 -0.16,0 -0.16,0.16 -5.76,0 0,-0.16 -0.16,0 -0.32,-0.32 0,-0.16 -0.16,-0.16 0,-3.52 0.16,0 0,-0.32 0.16,0 0,-0.16 0.16,0 0,-0.16 0.32,0 0,-0.16 5.44,0 0,0.16 0.32,0 0.32,0.32 0,0.16 L 0,-3.36 0,0 Z"
         style="fill:#000000;fill-opacity:1;fill-rule:nonzero;stroke:none"
         id="path94"
         inkscape:connector-curvature="0" /></g><g
       id="g96"
       transform="translate(54.275994,66.332245)"><path
         d="m 0,0 -0.32,0 -0.16,-0.16 -0.16,0 0,-0.16 -0.16,-0.16 0,-0.16 -0.16,0 0,-5.6 0.16,-0.16 0,-0.16 0.16,0 0,-0.16 0.16,-0.16 0.32,0 0,-0.16 3.52,0 0,0.16 0.32,0 0.32,0.32 0,0.16 0.16,0 0,5.76 -0.16,0.16 0,0.16 -0.16,0 0,0.16 -0.16,0 L 3.52,0 0,0 Z"
         style="fill:#000000;fill-opacity:1;fill-rule:nonzero;stroke:none"
         id="path98"
         inkscape:connector-curvature="0" /></g><g
       id="g100"
       transform="translate(-525.88398,-313.50776)"><path
         d="m 587.03998,359.67999 6.08002,0 0,3.04001 -6.08002,0 0,-3.04001 z m 0,-4.47998 6.08002,0 0,3.03998 -6.08002,0 0,-3.03998 z m 0,-4.64001 6.08002,0 0,3.04001 -6.08002,0 0,-3.04001 z m -8,14.08001 2.88,0 0,6.07999 -2.88,0 0,-6.07999 z M 564,388 l 2.88,0 0,4.48001 -2.88,0 L 564,388 Z m 7.20001,0 2.88001,0 0,4.48001 -2.88001,0 0,-4.48001 z M 564,396.32001 l 2.88,0 0,4.47998 -2.88,0 0,-4.47998 z m 7.20001,0 2.88001,0 0,4.47998 -2.88001,0 0,-4.47998 z m -3.52002,0 2.88001,0 0,4.47998 -2.88001,0 0,-4.47998 z"
         style="fill:#000000;fill-opacity:1;fill-rule:evenodd;stroke:none"
         id="path102"
         inkscape:connector-curvature="0" /></g><g
       id="g104"
       transform="translate(43.716004,66.332245)"><path
         d="m 0,0 -0.32,0 -0.16,-0.16 -0.16,0 0,-0.16 -0.16,0 0,-0.16 -0.16,-0.16 0,-5.76 0.16,0 0,-0.16 0.32,-0.32 0.16,0 0.16,-0.16 3.52,0 0,0.16 0.32,0 0.16,0.16 0,0.16 0.16,0 0,0.16 0.16,0.16 0,5.6 -0.16,0 0,0.16 -0.16,0.16 0,0.16 -0.16,0 L 3.52,0 0,0 Z"
         style="fill:#000000;fill-opacity:1;fill-rule:nonzero;stroke:none"
         id="path106"
         inkscape:connector-curvature="0" /></g><g
       id="g108"
       transform="translate(-525.88398,-313.50776)"><path
         d="m 554.23999,359.67999 6.08002,0 0,3.04001 -6.08002,0 0,-3.04001 z m 15.67999,4.96002 3.04004,0 0,6.07999 -3.04004,0 0,-6.07999 z m -15.67999,-9.44 6.08002,0 0,3.03998 -6.08002,0 0,-3.03998 z m 0,-4.64001 6.08002,0 0,3.04001 -6.08002,0 0,-3.04001 z m 11.04004,14.08001 3.03998,0 0,6.07999 -3.03998,0 0,-6.07999 z"
         style="fill:#000000;fill-opacity:1;fill-rule:evenodd;stroke:none"
         id="path110"
         inkscape:connector-curvature="0" /></g></g></svg>